# xmcd CD database file
#
# Track frame offsets:
#	150
#	14177
#	33125
#	52887
#	76237
#	92371
#	107337
#	127606
#	148817
#	163942
#	181519
#	199661
#	222091
#
# Disc length: 3144 seconds
#
# Revision: 0
# Processed by: cddbd v1.5.2PL0 Copyright (c) Steve Scherf et al.
# Submitted via: CDex 1.51
#
DISCID=9a0c460d
DTITLE=André and Andrade - Patrimônio da Humanidade
DYEAR=2009
DGENRE=Country
TTITLE0=Patrimônio da Humanidade
TTITLE1=Avô e o Neto
TTITLE2=Jardim da Passarada
TTITLE3=Mataria
TTITLE4=Índio Sertanejo
TTITLE5=Escravo Branco
TTITLE6=Milagre Acontecido
TTITLE7=Passado de Um Boiadeiro
TTITLE8=Morrendo de Fome em Cima do Ouro
TTITLE9=Boiadeiro Galante
TTITLE10=Zé Feição
TTITLE11=Mutirão
TTITLE12=Suspiro
EXTD=YEAR: 2009
EXTT0=
EXTT1=
EXTT2=
EXTT3=
EXTT4=
EXTT5=
EXTT6=
EXTT7=
EXTT8=
EXTT9=
EXTT10=
EXTT11=
EXTT12=
PLAYORDER=
